<svg width="256" height="256" viewBox="0 0 256 256" fill="none" xmlns="http://www.w3.org/2000/svg">
  <!-- 背景渐变 -->
  <defs>
    <linearGradient id="bgGradient" x1="0%" y1="0%" x2="100%" y2="100%">
      <stop offset="0%" style="stop-color:#667eea;stop-opacity:1" />
      <stop offset="100%" style="stop-color:#764ba2;stop-opacity:1" />
    </linearGradient>
    <linearGradient id="micGradient" x1="0%" y1="0%" x2="100%" y2="100%">
      <stop offset="0%" style="stop-color:#ffffff;stop-opacity:1" />
      <stop offset="100%" style="stop-color:#f8f9fa;stop-opacity:1" />
    </linearGradient>
    <filter id="shadow" x="-50%" y="-50%" width="200%" height="200%">
      <feDropShadow dx="0" dy="4" stdDeviation="8" flood-color="#000000" flood-opacity="0.2"/>
    </filter>
  </defs>
  
  <!-- 背景圆形 -->
  <circle cx="128" cy="128" r="120" fill="url(#bgGradient)" filter="url(#shadow)"/>
  
  <!-- 麦克风主体 -->
  <g transform="translate(128, 128)">
    <!-- 麦克风头部 -->
    <rect x="-20" y="-60" width="40" height="60" rx="20" ry="20" fill="url(#micGradient)" stroke="none"/>
    
    <!-- 麦克风支架 -->
    <rect x="-2" y="0" width="4" height="40" fill="url(#micGradient)"/>
    
    <!-- 麦克风底座 -->
    <ellipse cx="0" cy="45" rx="25" ry="8" fill="url(#micGradient)"/>
    
    <!-- 声波效果 -->
    <g opacity="0.8">
      <!-- 第一层声波 -->
      <path d="M 35 -30 Q 45 -15 35 0" stroke="#ffffff" stroke-width="3" fill="none" stroke-linecap="round"/>
      <path d="M -35 -30 Q -45 -15 -35 0" stroke="#ffffff" stroke-width="3" fill="none" stroke-linecap="round"/>
      
      <!-- 第二层声波 -->
      <path d="M 45 -35 Q 60 -15 45 5" stroke="#ffffff" stroke-width="2" fill="none" stroke-linecap="round" opacity="0.7"/>
      <path d="M -45 -35 Q -60 -15 -45 5" stroke="#ffffff" stroke-width="2" fill="none" stroke-linecap="round" opacity="0.7"/>
      
      <!-- 第三层声波 -->
      <path d="M 55 -40 Q 75 -15 55 10" stroke="#ffffff" stroke-width="1.5" fill="none" stroke-linecap="round" opacity="0.5"/>
      <path d="M -55 -40 Q -75 -15 -55 10" stroke="#ffffff" stroke-width="1.5" fill="none" stroke-linecap="round" opacity="0.5"/>
    </g>
    
    <!-- 麦克风网格 -->
    <g opacity="0.6">
      <line x1="-15" y1="-50" x2="15" y2="-50" stroke="#667eea" stroke-width="1"/>
      <line x1="-15" y1="-40" x2="15" y2="-40" stroke="#667eea" stroke-width="1"/>
      <line x1="-15" y1="-30" x2="15" y2="-30" stroke="#667eea" stroke-width="1"/>
      <line x1="-15" y1="-20" x2="15" y2="-20" stroke="#667eea" stroke-width="1"/>
      <line x1="-15" y1="-10" x2="15" y2="-10" stroke="#667eea" stroke-width="1"/>
    </g>
    
    <!-- 高光效果 -->
    <ellipse cx="-8" cy="-45" rx="4" ry="8" fill="#ffffff" opacity="0.4"/>
  </g>
  
  <!-- 装饰性音符 -->
  <g opacity="0.3">
    <circle cx="60" cy="80" r="3" fill="#ffffff"/>
    <circle cx="200" cy="120" r="2" fill="#ffffff"/>
    <circle cx="180" cy="60" r="2.5" fill="#ffffff"/>
    <circle cx="80" cy="200" r="2" fill="#ffffff"/>
  </g>
</svg>